<?xml version="1.0" encoding="UTF-8"?>
<svg width="96px" height="28px" viewBox="0 0 96 28" version="1.1" xmlns="http://www.w3.org/2000/svg" xmlns:xlink="http://www.w3.org/1999/xlink">
    <!-- Generator: Sketch 48.2 (47327) - http://www.bohemiancoding.com/sketch -->
    <title>Group</title>
    <desc>Created with Sketch.</desc>
    <defs></defs>
    <g id="bazen_underconstruction" stroke="none" stroke-width="1" fill="none" fill-rule="evenodd" transform="translate(-380.000000, -50.000000)">
        <g id="Group" transform="translate(380.000000, 50.000000)" fill="#FFFFFF">
            <path d="M0.716068153,0.346463715 L4.9467882,0.346463715 L4.9467882,12.2277358 L5.0525562,12.2277358 C5.26409326,11.9456864 5.53438656,11.6577653 5.86344421,11.3639638 C6.19250186,11.0701624 6.59206587,10.7939931 7.06214822,10.5354478 C7.53223058,10.2769025 8.07281718,10.0653686 8.68392424,9.90083982 C9.2950313,9.73631099 10.0001443,9.65404781 10.7992843,9.65404781 C11.9979943,9.65404781 13.1026712,9.88320953 14.1133483,10.3415398 C15.1240254,10.7998701 15.9877887,11.4285958 16.7046643,12.2277358 C17.4215399,13.0268758 17.9797543,13.9670265 18.3793243,15.0482159 C18.7788943,16.1294053 18.9786763,17.2928417 18.9786763,18.5385599 C18.9786763,19.7842782 18.7906462,20.9477145 18.4145803,22.0289039 C18.0385145,23.1100934 17.486176,24.050244 16.7575483,24.849384 C16.0289207,25.648524 15.1475295,26.2772497 14.1133483,26.73558 C13.0791671,27.1939103 11.9157307,27.423072 10.6230043,27.423072 C9.42429425,27.423072 8.3078654,27.1880344 7.27368422,26.717952 C6.23950304,26.2478696 5.41687126,25.4957492 4.8057642,24.461568 L4.7352522,24.461568 L4.7352522,27 L0.716068153,27 L0.716068153,0.346463715 Z M14.7479563,18.5385599 C14.7479563,17.8804446 14.6363134,17.245843 14.4130243,16.6347359 C14.1897352,16.0236288 13.8606825,15.4830422 13.4258563,15.0129599 C12.9910301,14.5428775 12.4680713,14.1668173 11.8569643,13.8847679 C11.2458572,13.6027184 10.5524961,13.4616959 9.77686025,13.4616959 C9.00122436,13.4616959 8.30786329,13.6027184 7.69675623,13.8847679 C7.08564917,14.1668173 6.56269039,14.5428775 6.12786421,15.0129599 C5.69303803,15.4830422 5.36398532,16.0236288 5.1406962,16.6347359 C4.91740708,17.245843 4.8057642,17.8804446 4.8057642,18.5385599 C4.8057642,19.1966752 4.91740708,19.8312769 5.1406962,20.4423839 C5.36398532,21.053491 5.69303803,21.5940776 6.12786421,22.0641599 C6.56269039,22.5342423 7.08564917,22.9103025 7.69675623,23.192352 C8.30786329,23.4744014 9.00122436,23.615424 9.77686025,23.615424 C10.5524961,23.615424 11.2458572,23.4744014 11.8569643,23.192352 C12.4680713,22.9103025 12.9910301,22.5342423 13.4258563,22.0641599 C13.8606825,21.5940776 14.1897352,21.053491 14.4130243,20.4423839 C14.6363134,19.8312769 14.7479563,19.1966752 14.7479563,18.5385599 Z M31.6627005,24.673104 L31.5569325,24.673104 C30.9458254,25.6367728 30.1702011,26.3360098 29.2300364,26.770836 C28.2898717,27.2056622 27.2557061,27.423072 26.1275084,27.423072 C25.3518725,27.423072 24.5938761,27.3173051 23.8534964,27.105768 C23.1131167,26.8942309 22.4550112,26.5769301 21.8791604,26.153856 C21.3033095,25.7307819 20.8391101,25.2019472 20.4865483,24.567336 C20.1339866,23.9327248 19.9577083,23.1923562 19.9577083,22.346208 C19.9577083,21.4295474 20.1222347,20.6480472 20.4512923,20.0016839 C20.78035,19.3553207 21.2210456,18.8147341 21.7733924,18.3799079 C22.3257391,17.9450817 22.9662167,17.5984012 23.6948444,17.3398559 C24.423472,17.0813106 25.1814685,16.8874045 25.9688564,16.7581319 C26.7562443,16.6288592 27.5494964,16.5465961 28.3486364,16.5113399 C29.1477764,16.4760837 29.8998969,16.4584559 30.6050204,16.4584559 L31.6627005,16.4584559 L31.6627005,16.0001279 C31.6627005,14.9424426 31.2983921,14.1491905 30.5697644,13.6203479 C29.8411368,13.0915052 28.9127381,12.8270878 27.7845404,12.8270878 C26.8913839,12.8270878 26.0570003,12.9857383 25.2813644,13.3030439 C24.5057285,13.6203494 23.8358712,14.0492932 23.2717724,14.5898879 L21.0506443,12.3687598 C21.9908091,11.405091 23.0896101,10.7117299 24.3470804,10.2886558 C25.6045507,9.8655817 26.9031337,9.65404781 28.2428684,9.65404781 C29.4415784,9.65404781 30.4522403,9.78919446 31.2748845,10.0594918 C32.0975286,10.3297892 32.7791378,10.6764697 33.3197325,11.0995438 C33.8603272,11.522618 34.277519,12.0103211 34.5713205,12.5626678 C34.865122,13.1150146 35.0766558,13.673229 35.2059285,14.2373279 C35.3352011,14.8014267 35.4115884,15.3478892 35.4350925,15.8767319 C35.4585966,16.4055745 35.4703485,16.8697739 35.4703485,17.2693439 L35.4703485,27 L31.6627005,27 L31.6627005,24.673104 Z M31.4159085,19.4199599 L30.5345084,19.4199599 C29.9469055,19.4199599 29.2888001,19.4434637 28.5601724,19.4904719 C27.8315448,19.5374802 27.1440596,19.649123 26.4976964,19.8254039 C25.8513332,20.0016848 25.3048706,20.2602262 24.8582924,20.6010359 C24.4117141,20.9418456 24.1884284,21.4177969 24.1884284,22.0289039 C24.1884284,22.4284739 24.2765675,22.7634026 24.4528484,23.0337 C24.6291293,23.3039973 24.858291,23.533159 25.1403404,23.721192 C25.4223898,23.9092249 25.7396906,24.0443716 26.0922524,24.126636 C26.4448142,24.2089004 26.7973706,24.250032 27.1499324,24.250032 C28.6071877,24.250032 29.682485,23.9033514 30.3758564,23.20998 C31.0692279,22.5166085 31.4159085,21.5705819 31.4159085,20.3718719 L31.4159085,19.4199599 Z M37.6562205,23.086584 L46.7170126,13.5322079 L46.7170126,13.4616959 L38.0792925,13.4616959 L38.0792925,10.0771198 L51.8291327,10.0771198 L51.8291327,13.9200239 L42.6625726,23.615424 L52.2522047,23.615424 L52.2522047,27 L37.6562205,27 L37.6562205,23.086584 Z M57.7304446,20.0193119 C57.8714693,21.2885343 58.3650484,22.2756924 59.2111967,22.980816 C60.0573449,23.6859395 61.0797587,24.038496 62.2784687,24.038496 C63.336154,24.038496 64.2234211,23.8210861 64.9402967,23.38626 C65.6571723,22.9514338 66.285898,22.4049712 66.8264927,21.7468559 L69.8585088,24.038496 C68.8713358,25.2607101 67.7666589,26.1303494 66.5444447,26.64744 C65.3222306,27.1645306 64.0412754,27.423072 62.7015407,27.423072 C61.4323183,27.423072 60.2336263,27.2115381 59.1054287,26.788464 C57.977231,26.3653899 57.0018247,25.7660439 56.1791806,24.990408 C55.3565365,24.2147721 54.704307,23.2804974 54.2224726,22.1875559 C53.7406382,21.0946145 53.4997246,19.8782946 53.4997246,18.5385599 C53.4997246,17.1988252 53.7406382,15.9825053 54.2224726,14.8895639 C54.704307,13.7966224 55.3565365,12.8623477 56.1791806,12.0867118 C57.0018247,11.311076 57.977231,10.7117299 59.1054287,10.2886558 C60.2336263,9.8655817 61.4323183,9.65404781 62.7015407,9.65404781 C63.8767466,9.65404781 64.9520438,9.85970576 65.9274647,10.2710278 C66.9028856,10.6823499 67.7372693,11.27582 68.4306408,12.0514558 C69.1240122,12.8270917 69.6645988,13.7848702 70.0524168,14.9248199 C70.4402347,16.0647696 70.6341408,17.3751045 70.6341408,18.8558639 L70.6341408,20.0193119 L57.7304446,20.0193119 Z M66.4034207,16.8462719 C66.3799166,15.6005536 65.9921045,14.6192715 65.2399727,13.9023959 C64.487841,13.1855203 63.4419234,12.8270878 62.1021887,12.8270878 C60.8329663,12.8270878 59.8281804,13.1913962 59.0878007,13.9200239 C58.3474209,14.6486515 57.8949735,15.6240578 57.7304446,16.8462719 L66.4034207,16.8462719 Z M72.5922047,10.0771198 L76.6113887,10.0771198 L76.6113887,12.7918318 L76.6819007,12.7918318 C77.0814707,11.9456836 77.6925686,11.2111909 78.5152127,10.5883318 C79.3378569,9.9654727 80.4542857,9.65404781 81.8645328,9.65404781 C82.9927304,9.65404781 83.9505089,9.84207794 84.7378968,10.2181438 C85.5252847,10.5942097 86.1657624,11.0877888 86.6593488,11.6988958 C87.1529353,12.3100029 87.5054918,13.0151159 87.7170288,13.8142559 C87.9285659,14.6133959 88.0343328,15.4477795 88.0343328,16.3174319 L88.0343328,27 L83.8036128,27 L83.8036128,18.4327919 C83.8036128,17.9627096 83.780109,17.4397508 83.7331008,16.8638999 C83.6860926,16.288049 83.5626978,15.7474624 83.3629128,15.2421239 C83.1631278,14.7367853 82.8517029,14.3137176 82.4286288,13.9729079 C82.0055547,13.6320982 81.4297124,13.4616959 80.7010848,13.4616959 C79.9959612,13.4616959 79.4024912,13.5792147 78.9206567,13.8142559 C78.4388223,14.049297 78.0392583,14.3665979 77.7219527,14.7661679 C77.4046471,15.1657379 77.1754854,15.6240613 77.0344607,16.1411519 C76.893436,16.6582425 76.8229247,17.1988291 76.8229247,17.7629279 L76.8229247,27 L72.5922047,27 L72.5922047,10.0771198 Z" id="bazen"></path>
            <path d="M90.880401,24.8468991 C90.880401,24.1706567 91.1193936,23.5895197 91.597386,23.1034705 C92.0753784,22.6174213 92.6499776,22.3744003 93.321201,22.3744003 C93.9720843,22.3744003 94.5415986,22.6068551 95.029761,23.0717718 C95.5179235,23.5366884 95.762001,24.1072593 95.762001,24.7835016 C95.762001,25.459744 95.5230084,26.0408811 95.045016,26.5269302 C94.5670236,27.0129794 93.9924244,27.2560004 93.321201,27.2560004 C92.9957594,27.2560004 92.6855775,27.1926036 92.390646,27.0658082 C92.0957145,26.9390127 91.8363821,26.7699547 91.612641,26.5586289 C91.3888999,26.3473032 91.2109267,26.0937161 91.078716,25.7978601 C90.9465053,25.5020041 90.880401,25.1850202 90.880401,24.8468991 Z" id="."></path>
        </g>
    </g>
</svg>